<svg width="70" height="70" viewBox="0 0 96 96" fill="none" xmlns="http://www.w3.org/2000/svg">
<g clip-path="url(#clip0_101_26)">
<ellipse cx="48" cy="48" rx="43" ry="42" fill="#ACC319"/>
<path d="M60.6265 56.6867C59.0241 56.6867 57.5904 57.3193 56.494 58.3102L41.4608 49.5602C41.5663 49.0753 41.6506 48.5904 41.6506 48.0843C41.6506 47.5783 41.5663 47.0934 41.4608 46.6084L56.3253 37.9428C57.4639 38.997 58.9608 39.6506 60.6265 39.6506C64.1265 39.6506 66.9518 36.8253 66.9518 33.3253C66.9518 29.8253 64.1265 27 60.6265 27C57.1265 27 54.3012 29.8253 54.3012 33.3253C54.3012 33.8313 54.3855 34.3163 54.491 34.8012L39.6265 43.4669C38.488 42.4127 36.991 41.759 35.3253 41.759C31.8253 41.759 29 44.5843 29 48.0843C29 51.5843 31.8253 54.4096 35.3253 54.4096C36.991 54.4096 38.488 53.756 39.6265 52.7018L54.6386 61.4729C54.5331 61.9157 54.4699 62.3795 54.4699 62.8434C54.4699 66.238 57.2319 69 60.6265 69C64.0211 69 66.7831 66.238 66.7831 62.8434C66.7831 59.4488 64.0211 56.6867 60.6265 56.6867Z" fill="black"/>
</g>
<defs>
<clipPath id="clip0_101_26">
<rect width="96" height="96" fill="white"/>
</clipPath>
</defs>
</svg>
